<svg xmlns="http://www.w3.org/2000/svg" width="1200" height="700" viewBox="0 0 1200 700">
<rect width="100%" height="100%" fill="white"/>
<line x1="80" y1="30" x2="80" y2="630" stroke="black"/>
<line x1="80" y1="630" x2="1170" y2="630" stroke="black"/>
<text x="600" y="680" text-anchor="middle" font-family="Arial" font-size="18">Frequency (Hz)</text>
<text x="20" y="350" text-anchor="middle" transform="rotate(-90 20 350)" font-family="Arial" font-size="18">Magnitude (log scale)</text>
<text x="80" y="655" text-anchor="middle" font-family="Arial" font-size="14">0</text>
<text x="1170" y="655" text-anchor="middle" font-family="Arial" font-size="14">22050.00</text>
<polyline fill="none" stroke="#1f77b4" stroke-width="1.5" points="80.00,234.41 81.00,252.11 82.00,192.22 83.00,140.68 84.00,138.48 85.00,128.42 86.01,80.51 87.01,112.20 88.01,75.46 89.01,44.65 90.01,45.33 91.01,119.33 92.01,78.18 93.01,147.51 94.01,53.31 95.01,102.95 96.01,82.77 97.02,35.14 98.02,51.37 99.02,30.00 100.02,80.24 101.02,94.26 102.02,146.41 103.02,161.35 104.02,35.95 105.02,73.25 106.02,93.98 107.02,132.61 108.03,173.22 109.03,81.22 110.03,128.46 111.03,155.34 112.03,93.27 113.03,127.47 114.03,88.18 115.03,172.43 116.03,125.15 117.03,177.83 118.03,140.40 119.04,144.41 120.04,166.72 121.04,157.83 122.04,171.11 123.04,77.49 124.04,174.46 125.04,153.48 126.04,155.34 127.04,211.17 128.04,174.48 129.04,109.05 130.05,206.96 131.05,129.76 132.05,84.33 133.05,209.69 134.05,181.14 135.05,192.75 136.05,278.32 137.05,209.25 138.05,126.39 139.05,263.68 140.06,233.11 141.06,153.40 142.06,132.58 143.06,224.11 144.06,214.41 145.06,117.65 146.06,226.62 147.06,224.56 148.06,183.47 149.06,132.83 150.06,217.31 151.07,194.50 152.07,201.28 153.07,187.36 154.07,267.03 155.07,247.88 156.07,199.93 157.07,152.17 158.07,103.99 159.07,280.87 160.07,250.21 161.07,269.80 162.08,173.90 163.08,227.84 164.08,255.29 165.08,237.06 166.08,220.23 167.08,179.59 168.08,189.34 169.08,293.29 170.08,230.54 171.08,179.54 172.08,252.50 173.09,228.26 174.09,272.39 175.09,244.61 176.09,264.35 177.09,253.27 178.09,169.68 179.09,236.70 180.09,264.53 181.09,302.04 182.09,205.55 183.09,223.70 184.10,176.66 185.10,268.36 186.10,302.83 187.10,255.87 188.10,277.28 189.10,245.91 190.10,286.54 191.10,256.78 192.10,287.53 193.10,304.51 194.10,280.12 195.11,249.16 196.11,297.15 197.11,208.40 198.11,264.64 199.11,310.01 200.11,300.63 201.11,303.60 202.11,315.42 203.11,280.47 204.11,238.88 205.11,251.35 206.12,313.41 207.12,287.64 208.12,289.86 209.12,295.37 210.12,314.60 211.12,270.26 212.12,234.81 213.12,192.32 214.12,276.37 215.12,323.21 216.12,331.14 217.13,297.07 218.13,290.60 219.13,273.59 220.13,285.76 221.13,251.76 222.13,366.60 223.13,358.66 224.13,294.22 225.13,308.35 226.13,288.33 227.13,300.89 228.14,301.79 229.14,299.03 230.14,293.69 231.14,339.28 232.14,308.46 233.14,354.60 234.14,348.56 235.14,293.86 236.14,329.43 237.14,325.28 238.15,286.06 239.15,364.60 240.15,378.17 241.15,351.47 242.15,363.11 243.15,371.34 244.15,370.92 245.15,331.53 246.15,276.00 247.15,340.67 248.15,347.08 249.16,326.53 250.16,381.42 251.16,344.37 252.16,348.31 253.16,347.73 254.16,381.21 255.16,322.41 256.16,345.05 257.16,319.93 258.16,327.54 259.16,368.78 260.17,362.92 261.17,386.94 262.17,334.59 263.17,369.67 264.17,381.55 265.17,339.41 266.17,329.37 267.17,355.76 268.17,394.80 269.17,343.77 270.17,407.59 271.18,373.91 272.18,419.58 273.18,360.55 274.18,333.09 275.18,391.80 276.18,338.43 277.18,382.44 278.18,351.45 279.18,355.88 280.18,357.44 281.18,343.91 282.19,392.10 283.19,392.74 284.19,423.27 285.19,382.85 286.19,370.65 287.19,343.51 288.19,410.60 289.19,360.30 290.19,386.17 291.19,352.00 292.19,342.40 293.20,386.26 294.20,401.43 295.20,418.78 296.20,419.02 297.20,405.07 298.20,404.29 299.20,380.51 300.20,398.83 301.20,463.29 302.20,385.20 303.20,432.89 304.21,445.87 305.21,384.52 306.21,356.69 307.21,387.01 308.21,407.67 309.21,366.40 310.21,383.01 311.21,409.51 312.21,447.17 313.21,414.27 314.21,410.11 315.22,407.97 316.22,431.84 317.22,452.34 318.22,411.36 319.22,431.55 320.22,373.00 321.22,399.39 322.22,431.53 323.22,409.06 324.22,393.92 325.22,469.43 326.23,399.89 327.23,451.59 328.23,421.36 329.23,425.83 330.23,397.13 331.23,411.41 332.23,405.24 333.23,439.28 334.23,417.89 335.23,359.84 336.24,392.24 337.24,474.25 338.24,492.86 339.24,451.95 340.24,423.78 341.24,399.57 342.24,462.81 343.24,446.28 344.24,460.60 345.24,409.74 346.24,388.51 347.25,402.28 348.25,445.55 349.25,452.50 350.25,446.43 351.25,405.15 352.25,440.25 353.25,447.90 354.25,441.56 355.25,415.17 356.25,447.07 357.25,424.27 358.26,488.39 359.26,490.20 360.26,481.98 361.26,497.13 362.26,467.10 363.26,450.99 364.26,497.95 365.26,455.18 366.26,469.13 367.26,464.60 368.26,465.32 369.27,454.20 370.27,460.59 371.27,431.84 372.27,452.09 373.27,457.69 374.27,495.72 375.27,486.79 376.27,495.15 377.27,483.55 378.27,535.86 379.27,525.58 380.28,485.71 381.28,453.91 382.28,477.50 383.28,493.69 384.28,455.50 385.28,475.26 386.28,495.53 387.28,473.75 388.28,472.59 389.28,470.53 390.28,452.79 391.29,477.66 392.29,454.26 393.29,469.10 394.29,525.88 395.29,540.42 396.29,498.96 397.29,500.23 398.29,527.45 399.29,507.48 400.29,502.53 401.29,510.10 402.30,477.01 403.30,513.07 404.30,446.75 405.30,463.21 406.30,480.98 407.30,479.65 408.30,476.68 409.30,515.63 410.30,523.45 411.30,515.12 412.30,482.76 413.31,543.19 414.31,511.29 415.31,513.12 416.31,539.11 417.31,557.59 418.31,531.51 419.31,520.85 420.31,538.44 421.31,533.24 422.31,525.75 423.31,533.69 424.32,510.32 425.32,505.81 426.32,498.12 427.32,485.50 428.32,534.29 429.32,523.58 430.32,529.00 431.32,518.58 432.32,502.13 433.32,539.26 434.33,557.36 435.33,556.02 436.33,563.15 437.33,555.68 438.33,539.55 439.33,534.69 440.33,508.95 441.33,570.20 442.33,567.80 443.33,544.82 444.33,526.28 445.34,528.65 446.34,486.15 447.34,531.05 448.34,504.86 449.34,460.35 450.34,536.29 451.34,531.24 452.34,527.82 453.34,535.09 454.34,531.51 455.34,528.68 456.35,550.48 457.35,542.06 458.35,512.20 459.35,550.78 460.35,564.31 461.35,552.63 462.35,562.21 463.35,552.64 464.35,546.94 465.35,529.34 466.35,569.50 467.36,527.88 468.36,518.74 469.36,534.70 470.36,570.23 471.36,555.72 472.36,549.30 473.36,561.33 474.36,560.34 475.36,548.81 476.36,556.16 477.36,535.49 478.37,540.32 479.37,569.64 480.37,559.03 481.37,554.79 482.37,568.93 483.37,564.36 484.37,537.71 485.37,519.59 486.37,572.57 487.37,562.40 488.37,556.71 489.38,495.57 490.38,542.94 491.38,561.68 492.38,553.40 493.38,556.56 494.38,575.58 495.38,572.52 496.38,572.51 497.38,559.36 498.38,543.66 499.38,562.52 500.39,571.03 501.39,551.92 502.39,531.09 503.39,545.78 504.39,558.67 505.39,563.12 506.39,540.31 507.39,554.61 508.39,582.23 509.39,580.02 510.39,565.17 511.40,582.09 512.40,587.54 513.40,586.76 514.40,567.15 515.40,553.44 516.40,547.85 517.40,563.79 518.40,568.50 519.40,558.50 520.40,569.82 521.40,546.96 522.41,578.09 523.41,584.63 524.41,563.46 525.41,565.48 526.41,585.12 527.41,583.29 528.41,580.84 529.41,575.25 530.41,576.72 531.41,573.28 532.42,579.95 533.42,585.75 534.42,573.26 535.42,581.90 536.42,572.17 537.42,573.85 538.42,581.98 539.42,582.07 540.42,594.04 541.42,591.15 542.42,594.86 543.43,585.28 544.43,584.03 545.43,587.30 546.43,578.11 547.43,577.46 548.43,589.84 549.43,589.33 550.43,591.86 551.43,588.79 552.43,586.32 553.43,584.91 554.44,574.69 555.44,553.06 556.44,580.90 557.44,562.85 558.44,570.70 559.44,577.00 560.44,588.84 561.44,564.12 562.44,564.86 563.44,591.56 564.44,589.32 565.45,567.34 566.45,570.98 567.45,596.68 568.45,599.58 569.45,596.73 570.45,591.92 571.45,587.02 572.45,597.03 573.45,582.65 574.45,595.76 575.45,599.48 576.46,600.81 577.46,602.70 578.46,594.98 579.46,599.63 580.46,597.74 581.46,599.62 582.46,581.05 583.46,581.03 584.46,598.10 585.46,601.06 586.46,600.66 587.47,597.96 588.47,599.28 589.47,598.33 590.47,588.54 591.47,595.92 592.47,584.93 593.47,586.37 594.47,575.84 595.47,582.70 596.47,586.52 597.47,570.87 598.48,557.77 599.48,571.98 600.48,579.25 601.48,592.68 602.48,587.10 603.48,561.68 604.48,581.82 605.48,592.14 606.48,597.12 607.48,599.31 608.48,600.82 609.49,598.04 610.49,600.16 611.49,598.27 612.49,601.07 613.49,602.13 614.49,601.92 615.49,605.35 616.49,600.45 617.49,605.69 618.49,603.14 619.49,600.83 620.50,603.29 621.50,597.54 622.50,596.82 623.50,601.08 624.50,603.15 625.50,596.63 626.50,599.56 627.50,594.54 628.50,598.18 629.50,593.98 630.51,597.44 631.51,597.70 632.51,590.31 633.51,595.79 634.51,599.41 635.51,596.35 636.51,602.40 637.51,581.14 638.51,602.00 639.51,600.97 640.51,601.09 641.52,600.24 642.52,600.10 643.52,602.20 644.52,593.57 645.52,599.85 646.52,602.92 647.52,599.86 648.52,605.52 649.52,602.07 650.52,606.08 651.52,604.84 652.53,600.35 653.53,604.60 654.53,599.18 655.53,598.81 656.53,601.60 657.53,600.88 658.53,596.48 659.53,588.02 660.53,600.44 661.53,601.07 662.53,605.35 663.54,592.06 664.54,605.46 665.54,604.27 666.54,605.40 667.54,606.14 668.54,604.40 669.54,603.01 670.54,597.31 671.54,604.71 672.54,596.70 673.54,587.49 674.55,599.55 675.55,600.27 676.55,602.95 677.55,602.38 678.55,602.89 679.55,603.96 680.55,608.69 681.55,605.08 682.55,604.03 683.55,602.54 684.55,605.43 685.56,604.86 686.56,605.33 687.56,608.26 688.56,604.84 689.56,605.77 690.56,605.63 691.56,608.95 692.56,608.59 693.56,600.48 694.56,601.35 695.56,602.24 696.57,605.20 697.57,603.84 698.57,606.86 699.57,607.95 700.57,608.27 701.57,608.59 702.57,607.05 703.57,609.40 704.57,609.66 705.57,606.27 706.57,607.49 707.58,609.68 708.58,609.46 709.58,607.69 710.58,607.16 711.58,603.18 712.58,606.13 713.58,606.95 714.58,609.05 715.58,607.83 716.58,608.20 717.58,608.67 718.59,609.54 719.59,605.33 720.59,608.14 721.59,608.88 722.59,608.67 723.59,610.26 724.59,608.45 725.59,609.56 726.59,605.12 727.59,602.28 728.60,601.58 729.60,598.63 730.60,600.71 731.60,591.74 732.60,603.01 733.60,600.53 734.60,600.97 735.60,598.25 736.60,596.59 737.60,598.10 738.60,604.52 739.61,604.83 740.61,602.84 741.61,607.47 742.61,602.38 743.61,596.21 744.61,602.01 745.61,606.12 746.61,598.46 747.61,601.06 748.61,599.50 749.61,598.07 750.62,603.49 751.62,594.99 752.62,600.43 753.62,605.39 754.62,604.70 755.62,603.71 756.62,604.94 757.62,605.39 758.62,606.22 759.62,606.76 760.62,607.56 761.63,603.16 762.63,601.18 763.63,602.61 764.63,603.48 765.63,603.34 766.63,608.28 767.63,607.73 768.63,608.34 769.63,601.90 770.63,605.67 771.63,607.22 772.64,604.48 773.64,605.81 774.64,607.74 775.64,608.59 776.64,603.82 777.64,606.07 778.64,606.38 779.64,603.09 780.64,609.35 781.64,611.67 782.64,604.91 783.65,608.92 784.65,606.33 785.65,602.96 786.65,606.50 787.65,610.29 788.65,608.52 789.65,608.29 790.65,610.04 791.65,606.25 792.65,602.46 793.65,607.32 794.66,607.73 795.66,607.82 796.66,606.32 797.66,606.28 798.66,610.57 799.66,607.78 800.66,606.66 801.66,607.47 802.66,610.47 803.66,612.53 804.66,606.33 805.67,606.33 806.67,611.62 807.67,610.39 808.67,606.73 809.67,607.82 810.67,607.64 811.67,606.69 812.67,608.53 813.67,612.48 814.67,608.01 815.67,605.12 816.68,609.86 817.68,607.47 818.68,608.78 819.68,610.20 820.68,608.72 821.68,610.11 822.68,610.05 823.68,611.02 824.68,608.50 825.68,610.88 826.69,612.97 827.69,609.92 828.69,609.00 829.69,609.32 830.69,611.20 831.69,611.36 832.69,608.76 833.69,610.53 834.69,614.45 835.69,612.34 836.69,612.71 837.70,611.50 838.70,606.90 839.70,604.83 840.70,611.74 841.70,611.46 842.70,612.73 843.70,613.30 844.70,607.51 845.70,610.28 846.70,610.07 847.70,614.72 848.71,610.20 849.71,607.60 850.71,610.73 851.71,613.05 852.71,612.69 853.71,610.59 854.71,607.70 855.71,614.31 856.71,613.00 857.71,611.41 858.71,611.68 859.72,612.11 860.72,603.41 861.72,607.85 862.72,549.65 863.72,507.47 864.72,556.21 865.72,609.22 866.72,601.99 867.72,594.82 868.72,586.99 869.72,529.45 870.73,487.11 871.73,542.32 872.73,556.47 873.73,566.70 874.73,596.36 875.73,615.73 876.73,620.39 877.73,607.65 878.73,622.21 879.73,621.42 880.73,624.86 881.74,624.40 882.74,624.33 883.74,623.89 884.74,623.73 885.74,624.12 886.74,623.73 887.74,623.46 888.74,623.65 889.74,625.17 890.74,624.45 891.74,621.78 892.75,624.73 893.75,624.17 894.75,624.31 895.75,624.28 896.75,625.21 897.75,623.80 898.75,624.20 899.75,624.52 900.75,624.14 901.75,624.12 902.75,623.96 903.76,623.94 904.76,624.96 905.76,625.44 906.76,624.53 907.76,623.42 908.76,624.31 909.76,624.39 910.76,624.09 911.76,622.85 912.76,623.86 913.76,623.12 914.77,625.17 915.77,624.93 916.77,624.43 917.77,624.06 918.77,624.28 919.77,625.07 920.77,625.09 921.77,625.47 922.77,625.32 923.77,625.45 924.78,624.60 925.78,624.50 926.78,624.56 927.78,624.37 928.78,624.69 929.78,625.15 930.78,624.80 931.78,625.65 932.78,624.94 933.78,625.41 934.78,623.93 935.79,624.45 936.79,624.16 937.79,624.52 938.79,625.33 939.79,624.65 940.79,624.99 941.79,624.44 942.79,623.89 943.79,623.62 944.79,624.09 945.79,623.22 946.80,623.91 947.80,624.60 948.80,624.78 949.80,625.40 950.80,624.56 951.80,624.78 952.80,624.75 953.80,624.57 954.80,624.61 955.80,623.94 956.80,623.65 957.81,624.20 958.81,624.32 959.81,623.60 960.81,624.70 961.81,624.06 962.81,623.08 963.81,624.32 964.81,624.23 965.81,624.67 966.81,623.83 967.81,624.68 968.82,624.54 969.82,625.34 970.82,625.00 971.82,623.89 972.82,623.73 973.82,624.47 974.82,625.13 975.82,624.37 976.82,623.71 977.82,624.24 978.82,624.93 979.83,625.03 980.83,623.72 981.83,624.14 982.83,625.27 983.83,625.08 984.83,624.59 985.83,625.15 986.83,625.26 987.83,624.87 988.83,624.78 989.83,625.33 990.84,624.99 991.84,625.78 992.84,625.17 993.84,624.89 994.84,625.65 995.84,625.46 996.84,624.83 997.84,624.59 998.84,624.89 999.84,624.83 1000.84,625.02 1001.85,623.86 1002.85,623.30 1003.85,624.70 1004.85,625.44 1005.85,624.38 1006.85,624.39 1007.85,625.26 1008.85,625.09 1009.85,624.98 1010.85,625.24 1011.85,623.82 1012.86,624.65 1013.86,625.96 1014.86,625.84 1015.86,625.81 1016.86,625.68 1017.86,625.04 1018.86,625.23 1019.86,625.76 1020.86,625.37 1021.86,624.69 1022.87,625.63 1023.87,625.31 1024.87,624.54 1025.87,624.83 1026.87,626.32 1027.87,625.79 1028.87,625.59 1029.87,625.54 1030.87,624.57 1031.87,624.39 1032.87,625.07 1033.88,624.58 1034.88,624.48 1035.88,624.57 1036.88,624.94 1037.88,625.47 1038.88,625.72 1039.88,624.87 1040.88,623.44 1041.88,625.56 1042.88,624.96 1043.88,625.02 1044.89,624.82 1045.89,624.45 1046.89,625.21 1047.89,625.12 1048.89,624.90 1049.89,624.52 1050.89,624.03 1051.89,625.29 1052.89,625.01 1053.89,625.18 1054.89,625.09 1055.90,625.46 1056.90,625.20 1057.90,625.26 1058.90,625.31 1059.90,625.08 1060.90,622.68 1061.90,622.97 1062.90,621.16 1063.90,616.22 1064.90,601.73 1065.90,576.11 1066.91,559.72 1067.91,225.96 1068.91,537.46 1069.91,577.55 1070.91,597.40 1071.91,613.83 1072.91,621.38 1073.91,626.40 1074.91,626.50 1075.91,626.99 1076.91,626.65 1077.92,627.38 1078.92,626.75 1079.92,627.41 1080.92,627.05 1081.92,627.56 1082.92,627.25 1083.92,627.17 1084.92,627.32 1085.92,627.17 1086.92,626.98 1087.92,627.43 1088.93,627.29 1089.93,626.82 1090.93,627.51 1091.93,627.39 1092.93,627.31 1093.93,627.01 1094.93,627.20 1095.93,627.09 1096.93,627.17 1097.93,627.39 1098.93,627.42 1099.94,627.48 1100.94,627.44 1101.94,627.26 1102.94,627.41 1103.94,627.24 1104.94,627.15 1105.94,627.12 1106.94,627.33 1107.94,627.22 1108.94,627.51 1109.94,627.40 1110.95,627.32 1111.95,627.29 1112.95,627.23 1113.95,627.17 1114.95,627.07 1115.95,627.08 1116.95,627.45 1117.95,627.22 1118.95,627.24 1119.95,626.60 1120.96,626.83 1121.96,627.39 1122.96,627.07 1123.96,627.49 1124.96,627.19 1125.96,627.54 1126.96,627.18 1127.96,627.51 1128.96,627.44 1129.96,627.53 1130.96,627.23 1131.97,627.28 1132.97,627.42 1133.97,627.38 1134.97,627.44 1135.97,627.21 1136.97,626.87 1137.97,627.48 1138.97,627.44 1139.97,627.48 1140.97,627.33 1141.97,627.21 1142.98,627.25 1143.98,627.23 1144.98,627.39 1145.98,627.19 1146.98,627.50 1147.98,627.17 1148.98,627.24 1149.98,627.49 1150.98,627.32 1151.98,627.35 1152.98,624.77 1153.99,627.14 1154.99,627.60 1155.99,627.41 1156.99,627.24 1157.99,627.18 1158.99,627.03 1159.99,627.24 1160.99,627.30 1161.99,627.15 1162.99,627.38 1163.99,627.47 1165.00,627.59 1166.00,627.42 1167.00,627.27 1168.00,627.39 1169.00,627.62 1170.00,627.35 "/>
</svg>
