<svg xmlns="http://www.w3.org/2000/svg" width="1200" height="700" viewBox="0 0 1200 700">
<rect width="100%" height="100%" fill="white"/>
<line x1="80" y1="30" x2="80" y2="630" stroke="black"/>
<line x1="80" y1="630" x2="1170" y2="630" stroke="black"/>
<text x="600" y="680" text-anchor="middle" font-family="Arial" font-size="18">Frequency (Hz)</text>
<text x="20" y="350" text-anchor="middle" transform="rotate(-90 20 350)" font-family="Arial" font-size="18">Magnitude (log scale)</text>
<text x="80" y="655" text-anchor="middle" font-family="Arial" font-size="14">0</text>
<text x="1170" y="655" text-anchor="middle" font-family="Arial" font-size="14">22050.00</text>
<polyline fill="none" stroke="#1f77b4" stroke-width="1.5" points="80.00,124.76 81.00,30.00 82.00,47.52 83.00,35.78 84.00,41.33 85.00,63.37 86.01,122.08 87.01,118.36 88.01,91.48 89.01,100.08 90.01,123.12 91.01,184.58 92.01,159.78 93.01,153.43 94.01,112.60 95.01,194.38 96.01,166.51 97.02,155.52 98.02,179.66 99.02,165.83 100.02,182.14 101.02,171.16 102.02,174.95 103.02,200.46 104.02,148.25 105.02,155.51 106.02,167.29 107.02,197.22 108.03,122.84 109.03,166.43 110.03,189.79 111.03,209.10 112.03,159.14 113.03,200.65 114.03,179.39 115.03,225.99 116.03,193.81 117.03,227.28 118.03,183.28 119.04,208.72 120.04,209.66 121.04,206.45 122.04,215.13 123.04,185.23 124.04,238.69 125.04,230.00 126.04,217.04 127.04,236.27 128.04,183.49 129.04,208.65 130.05,224.23 131.05,186.49 132.05,205.59 133.05,227.37 134.05,200.07 135.05,216.39 136.05,239.85 137.05,204.85 138.05,195.77 139.05,229.91 140.06,209.05 141.06,228.73 142.06,243.09 143.06,239.39 144.06,210.70 145.06,179.18 146.06,230.91 147.06,245.61 148.06,231.90 149.06,218.07 150.06,263.12 151.07,254.91 152.07,212.53 153.07,176.11 154.07,241.71 155.07,260.34 156.07,210.30 157.07,203.92 158.07,224.89 159.07,258.20 160.07,229.08 161.07,230.88 162.08,232.28 163.08,261.86 164.08,265.04 165.08,253.02 166.08,223.81 167.08,209.19 168.08,261.56 169.08,270.04 170.08,248.92 171.08,265.69 172.08,228.70 173.09,278.81 174.09,261.46 175.09,239.05 176.09,236.70 177.09,200.79 178.09,215.64 179.09,256.72 180.09,259.47 181.09,258.02 182.09,225.70 183.09,206.12 184.10,233.53 185.10,242.59 186.10,234.40 187.10,235.60 188.10,232.43 189.10,230.60 190.10,239.94 191.10,262.91 192.10,242.49 193.10,245.00 194.10,204.54 195.11,234.61 196.11,222.17 197.11,238.79 198.11,249.34 199.11,259.93 200.11,238.72 201.11,253.70 202.11,239.83 203.11,223.59 204.11,239.37 205.11,241.71 206.12,264.80 207.12,257.04 208.12,235.72 209.12,247.37 210.12,205.32 211.12,221.57 212.12,254.27 213.12,245.61 214.12,263.09 215.12,220.73 216.12,249.38 217.13,243.74 218.13,228.95 219.13,215.84 220.13,244.61 221.13,258.46 222.13,232.50 223.13,251.12 224.13,260.38 225.13,227.83 226.13,249.15 227.13,244.34 228.14,243.26 229.14,240.01 230.14,248.82 231.14,258.59 232.14,247.58 233.14,259.11 234.14,239.94 235.14,236.48 236.14,247.28 237.14,256.15 238.15,231.44 239.15,251.41 240.15,260.16 241.15,263.97 242.15,237.99 243.15,236.00 244.15,258.41 245.15,256.27 246.15,236.94 247.15,245.13 248.15,197.74 249.16,250.90 250.16,251.69 251.16,260.09 252.16,256.68 253.16,210.37 254.16,243.02 255.16,249.56 256.16,229.66 257.16,245.02 258.16,253.68 259.16,237.24 260.17,232.11 261.17,230.39 262.17,256.24 263.17,226.68 264.17,160.44 265.17,229.96 266.17,241.12 267.17,228.39 268.17,236.24 269.17,241.65 270.17,259.51 271.18,261.19 272.18,251.57 273.18,247.92 274.18,246.16 275.18,229.85 276.18,255.69 277.18,233.86 278.18,242.42 279.18,258.54 280.18,262.19 281.18,235.27 282.19,275.45 283.19,250.57 284.19,254.29 285.19,265.02 286.19,243.82 287.19,243.57 288.19,258.43 289.19,266.73 290.19,246.57 291.19,248.62 292.19,265.18 293.20,263.75 294.20,263.68 295.20,261.10 296.20,243.26 297.20,257.68 298.20,238.28 299.20,252.67 300.20,257.78 301.20,266.58 302.20,258.52 303.20,255.49 304.21,258.85 305.21,266.46 306.21,257.02 307.21,270.12 308.21,261.09 309.21,271.39 310.21,252.95 311.21,238.62 312.21,234.82 313.21,243.64 314.21,249.76 315.22,258.13 316.22,246.04 317.22,247.10 318.22,265.05 319.22,272.62 320.22,268.83 321.22,273.06 322.22,255.55 323.22,258.71 324.22,271.51 325.22,252.10 326.23,248.22 327.23,266.97 328.23,262.18 329.23,266.27 330.23,274.00 331.23,263.81 332.23,260.77 333.23,273.84 334.23,281.99 335.23,278.28 336.24,243.07 337.24,272.32 338.24,259.54 339.24,263.07 340.24,208.47 341.24,268.34 342.24,283.60 343.24,283.12 344.24,284.63 345.24,262.96 346.24,279.29 347.25,274.92 348.25,245.45 349.25,267.06 350.25,266.52 351.25,267.35 352.25,253.36 353.25,271.12 354.25,263.99 355.25,168.16 356.25,247.65 357.25,234.67 358.26,260.60 359.26,269.84 360.26,279.53 361.26,281.54 362.26,269.69 363.26,263.49 364.26,267.49 365.26,285.08 366.26,280.83 367.26,296.29 368.26,281.73 369.27,275.79 370.27,255.20 371.27,255.27 372.27,244.78 373.27,268.41 374.27,265.92 375.27,264.73 376.27,272.79 377.27,273.76 378.27,277.01 379.27,258.95 380.28,265.88 381.28,275.26 382.28,270.74 383.28,260.12 384.28,252.42 385.28,264.35 386.28,252.79 387.28,267.82 388.28,272.02 389.28,168.00 390.28,259.28 391.29,284.16 392.29,274.22 393.29,274.24 394.29,283.78 395.29,278.24 396.29,282.63 397.29,273.19 398.29,270.59 399.29,265.33 400.29,270.36 401.29,282.93 402.30,280.12 403.30,281.81 404.30,268.51 405.30,274.48 406.30,266.98 407.30,239.89 408.30,256.90 409.30,280.89 410.30,276.38 411.30,277.15 412.30,273.49 413.31,289.48 414.31,284.95 415.31,273.82 416.31,297.37 417.31,299.84 418.31,287.74 419.31,288.46 420.31,277.42 421.31,292.89 422.31,274.37 423.31,296.42 424.32,302.46 425.32,281.74 426.32,284.00 427.32,246.45 428.32,285.86 429.32,283.98 430.32,271.41 431.32,286.53 432.32,282.99 433.32,284.68 434.33,300.31 435.33,307.37 436.33,298.22 437.33,288.08 438.33,296.05 439.33,304.67 440.33,298.06 441.33,309.12 442.33,294.36 443.33,289.47 444.33,306.08 445.34,294.02 446.34,269.03 447.34,307.62 448.34,218.40 449.34,289.97 450.34,302.18 451.34,305.92 452.34,295.89 453.34,274.72 454.34,307.37 455.34,292.41 456.35,293.29 457.35,281.43 458.35,290.87 459.35,256.28 460.35,285.39 461.35,281.75 462.35,287.76 463.35,300.71 464.35,286.81 465.35,275.61 466.35,291.48 467.36,283.62 468.36,282.47 469.36,276.52 470.36,282.46 471.36,283.27 472.36,283.49 473.36,279.25 474.36,290.77 475.36,288.98 476.36,302.59 477.36,281.58 478.37,293.27 479.37,281.76 480.37,276.70 481.37,284.89 482.37,294.10 483.37,268.85 484.37,291.36 485.37,265.83 486.37,278.51 487.37,275.16 488.37,282.48 489.38,264.84 490.38,261.87 491.38,285.57 492.38,275.64 493.38,272.82 494.38,292.07 495.38,291.47 496.38,267.95 497.38,285.52 498.38,257.89 499.38,277.42 500.39,279.61 501.39,271.78 502.39,285.53 503.39,287.55 504.39,290.36 505.39,274.32 506.39,308.41 507.39,305.58 508.39,289.08 509.39,287.79 510.39,290.65 511.40,291.82 512.40,316.21 513.40,286.65 514.40,289.46 515.40,282.46 516.40,288.06 517.40,244.55 518.40,277.76 519.40,312.75 520.40,296.97 521.40,292.56 522.41,279.21 523.41,302.61 524.41,300.01 525.41,300.57 526.41,295.62 527.41,306.19 528.41,286.29 529.41,276.32 530.41,298.42 531.41,297.92 532.42,298.51 533.42,286.74 534.42,308.14 535.42,290.26 536.42,300.83 537.42,280.98 538.42,295.81 539.42,289.28 540.42,306.28 541.42,296.62 542.42,286.29 543.43,276.86 544.43,271.97 545.43,301.99 546.43,306.51 547.43,314.82 548.43,305.07 549.43,305.40 550.43,295.00 551.43,296.12 552.43,285.25 553.43,280.00 554.44,308.98 555.44,295.08 556.44,307.82 557.44,302.04 558.44,285.12 559.44,279.00 560.44,294.47 561.44,313.38 562.44,294.87 563.44,283.11 564.44,290.66 565.45,275.78 566.45,290.69 567.45,292.18 568.45,316.02 569.45,333.45 570.45,309.91 571.45,312.72 572.45,317.75 573.45,311.64 574.45,306.10 575.45,312.75 576.46,308.33 577.46,310.39 578.46,305.02 579.46,304.21 580.46,303.92 581.46,295.79 582.46,310.00 583.46,303.84 584.46,291.80 585.46,311.01 586.46,304.31 587.47,280.71 588.47,308.74 589.47,307.22 590.47,278.45 591.47,280.74 592.47,294.53 593.47,308.44 594.47,291.91 595.47,309.02 596.47,274.36 597.47,278.75 598.48,270.07 599.48,292.64 600.48,316.96 601.48,312.06 602.48,291.09 603.48,294.50 604.48,288.03 605.48,292.17 606.48,287.14 607.48,309.97 608.48,289.60 609.49,304.44 610.49,317.99 611.49,310.15 612.49,321.07 613.49,307.10 614.49,305.24 615.49,313.71 616.49,293.65 617.49,294.50 618.49,297.18 619.49,280.91 620.50,293.17 621.50,314.05 622.50,293.65 623.50,283.10 624.50,280.01 625.50,275.01 626.50,279.36 627.50,284.87 628.50,282.56 629.50,307.84 630.51,298.73 631.51,306.09 632.51,292.74 633.51,272.92 634.51,289.98 635.51,280.08 636.51,297.14 637.51,308.45 638.51,310.52 639.51,328.24 640.51,293.09 641.52,304.99 642.52,298.21 643.52,282.00 644.52,286.71 645.52,270.52 646.52,289.18 647.52,294.79 648.52,303.43 649.52,291.74 650.52,288.64 651.52,290.35 652.53,252.40 653.53,276.13 654.53,276.93 655.53,289.44 656.53,310.46 657.53,321.07 658.53,320.78 659.53,321.59 660.53,312.49 661.53,321.29 662.53,297.51 663.54,285.68 664.54,265.11 665.54,285.77 666.54,302.73 667.54,306.16 668.54,297.35 669.54,284.51 670.54,306.45 671.54,305.27 672.54,291.84 673.54,325.91 674.55,314.61 675.55,296.00 676.55,294.22 677.55,313.32 678.55,317.16 679.55,325.12 680.55,335.79 681.55,319.62 682.55,304.31 683.55,298.76 684.55,298.60 685.56,274.44 686.56,295.25 687.56,268.53 688.56,287.38 689.56,301.07 690.56,286.06 691.56,299.14 692.56,299.10 693.56,294.68 694.56,312.83 695.56,299.26 696.57,290.85 697.57,330.68 698.57,334.44 699.57,319.77 700.57,312.78 701.57,306.50 702.57,321.33 703.57,289.96 704.57,290.51 705.57,305.96 706.57,299.14 707.58,314.43 708.58,266.47 709.58,275.92 710.58,314.67 711.58,307.97 712.58,308.33 713.58,305.19 714.58,313.31 715.58,318.36 716.58,310.98 717.58,302.75 718.59,275.50 719.59,303.27 720.59,308.57 721.59,271.42 722.59,293.46 723.59,285.40 724.59,288.47 725.59,288.17 726.59,307.22 727.59,280.48 728.60,269.75 729.60,303.72 730.60,300.51 731.60,305.21 732.60,304.82 733.60,303.25 734.60,295.49 735.60,316.16 736.60,299.96 737.60,308.67 738.60,320.43 739.61,289.86 740.61,287.55 741.61,290.01 742.61,288.88 743.61,304.82 744.61,313.50 745.61,315.25 746.61,305.51 747.61,319.30 748.61,315.18 749.61,286.92 750.62,333.45 751.62,297.32 752.62,297.60 753.62,297.52 754.62,306.65 755.62,306.36 756.62,313.08 757.62,298.81 758.62,289.27 759.62,314.44 760.62,317.34 761.63,288.00 762.63,316.10 763.63,310.15 764.63,296.19 765.63,316.02 766.63,311.79 767.63,324.56 768.63,336.23 769.63,346.50 770.63,332.16 771.63,319.89 772.64,326.41 773.64,315.42 774.64,299.17 775.64,273.76 776.64,295.10 777.64,311.70 778.64,329.39 779.64,289.87 780.64,311.34 781.64,329.49 782.64,281.08 783.65,295.18 784.65,312.43 785.65,310.88 786.65,323.20 787.65,357.43 788.65,309.63 789.65,318.30 790.65,313.08 791.65,298.17 792.65,324.65 793.65,310.99 794.66,317.63 795.66,299.63 796.66,295.88 797.66,297.62 798.66,303.36 799.66,289.37 800.66,297.06 801.66,312.98 802.66,318.64 803.66,338.72 804.66,324.25 805.67,296.00 806.67,318.67 807.67,329.72 808.67,316.56 809.67,299.77 810.67,336.80 811.67,339.82 812.67,324.67 813.67,347.73 814.67,318.69 815.67,310.28 816.68,302.85 817.68,315.21 818.68,316.78 819.68,318.60 820.68,313.41 821.68,299.21 822.68,279.92 823.68,304.51 824.68,322.16 825.68,342.46 826.69,353.74 827.69,339.76 828.69,305.75 829.69,314.95 830.69,293.70 831.69,291.53 832.69,322.91 833.69,326.13 834.69,337.00 835.69,335.23 836.69,318.89 837.70,315.90 838.70,305.66 839.70,339.65 840.70,321.45 841.70,317.06 842.70,329.76 843.70,324.75 844.70,299.45 845.70,297.24 846.70,316.61 847.70,325.09 848.71,342.63 849.71,339.21 850.71,355.09 851.71,336.86 852.71,329.71 853.71,287.96 854.71,330.18 855.71,331.91 856.71,343.28 857.71,348.98 858.71,334.53 859.72,319.64 860.72,334.01 861.72,312.33 862.72,334.57 863.72,316.71 864.72,339.36 865.72,321.96 866.72,311.53 867.72,302.88 868.72,291.57 869.72,276.28 870.73,289.39 871.73,295.53 872.73,301.17 873.73,310.04 874.73,319.90 875.73,334.06 876.73,319.78 877.73,311.73 878.73,328.52 879.73,320.11 880.73,308.43 881.74,313.17 882.74,312.07 883.74,320.43 884.74,336.41 885.74,323.78 886.74,299.47 887.74,324.60 888.74,311.03 889.74,302.30 890.74,328.61 891.74,325.45 892.75,305.10 893.75,315.80 894.75,340.76 895.75,301.58 896.75,325.04 897.75,346.98 898.75,343.10 899.75,334.74 900.75,326.58 901.75,317.99 902.75,301.12 903.76,312.73 904.76,326.72 905.76,334.98 906.76,331.11 907.76,326.99 908.76,310.73 909.76,284.87 910.76,316.24 911.76,326.09 912.76,329.29 913.76,352.19 914.77,334.65 915.77,330.65 916.77,309.69 917.77,297.92 918.77,318.62 919.77,324.11 920.77,302.12 921.77,323.29 922.77,345.63 923.77,333.80 924.78,317.67 925.78,322.29 926.78,316.94 927.78,340.24 928.78,324.17 929.78,343.59 930.78,315.72 931.78,330.37 932.78,320.11 933.78,290.02 934.78,314.87 935.79,317.50 936.79,321.80 937.79,320.06 938.79,324.99 939.79,318.02 940.79,296.23 941.79,308.49 942.79,301.07 943.79,320.81 944.79,331.07 945.79,309.69 946.80,316.00 947.80,311.66 948.80,334.05 949.80,301.18 950.80,323.74 951.80,298.97 952.80,330.39 953.80,328.46 954.80,330.14 955.80,331.86 956.80,287.96 957.81,316.31 958.81,326.20 959.81,330.74 960.81,322.94 961.81,319.15 962.81,345.36 963.81,313.40 964.81,325.12 965.81,346.35 966.81,307.69 967.81,304.82 968.82,323.42 969.82,326.24 970.82,328.14 971.82,321.73 972.82,318.05 973.82,319.58 974.82,342.25 975.82,335.69 976.82,347.68 977.82,365.18 978.82,340.94 979.83,325.80 980.83,347.07 981.83,325.28 982.83,324.15 983.83,341.48 984.83,356.78 985.83,355.93 986.83,337.84 987.83,315.32 988.83,328.43 989.83,331.30 990.84,336.73 991.84,349.83 992.84,321.63 993.84,322.34 994.84,314.26 995.84,339.21 996.84,351.08 997.84,328.43 998.84,321.50 999.84,334.23 1000.84,321.98 1001.85,302.83 1002.85,346.41 1003.85,342.42 1004.85,350.03 1005.85,345.90 1006.85,325.08 1007.85,326.57 1008.85,337.71 1009.85,349.92 1010.85,336.47 1011.85,316.99 1012.86,332.34 1013.86,347.39 1014.86,331.24 1015.86,333.61 1016.86,348.14 1017.86,352.44 1018.86,331.23 1019.86,319.07 1020.86,333.74 1021.86,333.99 1022.87,325.20 1023.87,345.58 1024.87,335.63 1025.87,330.61 1026.87,363.36 1027.87,339.82 1028.87,333.69 1029.87,338.98 1030.87,341.32 1031.87,340.22 1032.87,342.22 1033.88,343.27 1034.88,354.96 1035.88,354.42 1036.88,330.50 1037.88,334.86 1038.88,352.40 1039.88,340.93 1040.88,351.41 1041.88,348.16 1042.88,364.17 1043.88,349.88 1044.89,346.52 1045.89,346.46 1046.89,328.98 1047.89,347.46 1048.89,322.75 1049.89,366.47 1050.89,344.98 1051.89,334.99 1052.89,331.63 1053.89,331.41 1054.89,350.65 1055.90,361.14 1056.90,361.24 1057.90,352.47 1058.90,361.87 1059.90,332.12 1060.90,352.45 1061.90,373.48 1062.90,355.44 1063.90,360.65 1064.90,374.69 1065.90,383.83 1066.91,396.92 1067.91,416.44 1068.91,409.69 1069.91,415.53 1070.91,430.31 1071.91,428.80 1072.91,428.52 1073.91,461.24 1074.91,483.29 1075.91,502.21 1076.91,518.38 1077.92,532.75 1078.92,534.01 1079.92,565.55 1080.92,581.33 1081.92,588.90 1082.92,598.72 1083.92,604.46 1084.92,613.93 1085.92,611.84 1086.92,616.30 1087.92,619.18 1088.93,619.73 1089.93,618.34 1090.93,624.03 1091.93,623.66 1092.93,623.76 1093.93,621.82 1094.93,623.86 1095.93,623.12 1096.93,619.38 1097.93,621.05 1098.93,619.50 1099.94,616.45 1100.94,608.47 1101.94,624.33 1102.94,625.70 1103.94,625.51 1104.94,623.45 1105.94,620.46 1106.94,617.75 1107.94,624.59 1108.94,625.21 1109.94,625.24 1110.95,624.49 1111.95,625.81 1112.95,626.00 1113.95,625.75 1114.95,625.65 1115.95,626.13 1116.95,625.87 1117.95,626.20 1118.95,625.61 1119.95,625.77 1120.96,625.66 1121.96,625.43 1122.96,625.66 1123.96,625.88 1124.96,625.34 1125.96,625.49 1126.96,625.62 1127.96,625.75 1128.96,625.86 1129.96,625.81 1130.96,624.34 1131.97,625.62 1132.97,625.55 1133.97,625.54 1134.97,625.32 1135.97,625.75 1136.97,625.85 1137.97,625.88 1138.97,625.79 1139.97,625.69 1140.97,626.17 1141.97,625.80 1142.98,626.06 1143.98,625.75 1144.98,625.83 1145.98,625.66 1146.98,625.59 1147.98,625.60 1148.98,626.03 1149.98,625.56 1150.98,626.17 1151.98,625.50 1152.98,624.94 1153.99,625.51 1154.99,625.49 1155.99,625.94 1156.99,625.71 1157.99,626.19 1158.99,625.49 1159.99,625.72 1160.99,625.92 1161.99,625.81 1162.99,625.58 1163.99,626.22 1165.00,622.33 1166.00,611.17 1167.00,608.98 1168.00,612.91 1169.00,610.79 1170.00,625.75 "/>
</svg>
